# xmcd CD database file
#
# Track frame offsets:
#	150
#	21763
#	39583
#	57194
#	68079
#	84156
#	101594
#	119680
#	131438
#	144051
#	159296
#
# Disc length: 2339 seconds
#
# Revision: 0
# Processed by: cddbd v1.5.2PL0 Copyright (c) Steve Scherf et al.
# Submitted via: CDex 1.51
#
DISCID=8409210b
DTITLE=Michael Murphy - Blue Sky Night Thunder
DYEAR=1975
DGENRE=Country
TTITLE0=Wildfire
TTITLE1=Carolina In The Pines
TTITLE2=Goodbye Old Desert Rat
TTITLE3=Wild Bird
TTITLE4=Blue Sky Riding Song
TTITLE5=Medicine Man
TTITLE6=Secret Mountain Hideout
TTITLE7=Without My Lady There
TTITLE8=Night Thunder
TTITLE9=Rings Of Life
TTITLE10=Wildfire (Single Version)
EXTD=YEAR: 1975
EXTT0=
EXTT1=
EXTT2=
EXTT3=
EXTT4=
EXTT5=
EXTT6=
EXTT7=
EXTT8=
EXTT9=
EXTT10=
PLAYORDER=
